<?xml version="1.0" standalone="no"?>
<!DOCTYPE svg PUBLIC "-//W3C//DTD SVG 1.1//EN"
  "http://www.w3.org/Graphics/SVG/1.1/DTD/svg11.dtd">
<svg width="282mm" height="281.99999999999994mm" viewBox="56 -480.9999999999999 282 281.99999999999994" xmlns="http://www.w3.org/2000/svg" version="1.1">
	<title>svgOutput</title>
	<desc>made with tinkercad</desc>
<path d="M 337 -463.00299072265614 L 333.00299072265625 -463.00299072265614 L 326.99798583984375 -463.00299072265614 L 326.99798583984375 -456.99798583984364 L 333.00299072265625 -456.99798583984364 L 337 -456.99798583984364 L 337 -443.00299072265614 L 333.00299072265625 -443.00299072265614 L 326.99798583984375 -443.00299072265614 L 326.99798583984375 -436.99798583984364 L 333.00299072265625 -436.99798583984364 L 337 -436.99798583984364 L 337 -423.00299072265614 L 333.00299072265625 -423.00299072265614 L 326.99798583984375 -423.00299072265614 L 326.99798583984375 -416.99798583984364 L 333.00299072265625 -416.99798583984364 L 337 -416.99798583984364 L 337 -403.00299072265614 L 333.00299072265625 -403.00299072265614 L 326.99798583984375 -403.00299072265614 L 326.99798583984375 -396.99798583984364 L 333.00299072265625 -396.99798583984364 L 337 -396.99798583984364 L 337 -383.0029907226562 L 333.00299072265625 -383.0029907226562 L 326.99798583984375 -383.0029907226562 L 326.99798583984375 -376.9979858398437 L 333.00299072265625 -376.9979858398437 L 337 -376.9979858398437 L 337 -363.0029907226562 L 333.00299072265625 -363.0029907226562 L 326.99798583984375 -363.0029907226562 L 326.99798583984375 -356.9979858398437 L 333.00299072265625 -356.9979858398437 L 337 -356.9979858398437 L 337 -343.0029907226562 L 333.00299072265625 -343.0029907226562 L 326.99798583984375 -343.0029907226562 L 326.99798583984375 -336.9979858398437 L 333.00299072265625 -336.9979858398437 L 337 -336.9979858398437 L 337 -323.0029907226562 L 333.00299072265625 -323.0029907226562 L 326.99798583984375 -323.0029907226562 L 326.99798583984375 -316.9979858398437 L 333.00299072265625 -316.9979858398437 L 337 -316.9979858398437 L 337 -303.0029907226562 L 333.00299072265625 -303.0029907226562 L 326.99798583984375 -303.0029907226562 L 326.99798583984375 -296.9979858398437 L 333.00299072265625 -296.9979858398437 L 337 -296.9979858398437 L 337 -283.0029907226562 L 333.00299072265625 -283.0029907226562 L 326.99798583984375 -283.0029907226562 L 326.99798583984375 -276.9979858398437 L 333.00299072265625 -276.9979858398437 L 337 -276.9979858398437 L 337 -263.0029907226562 L 333.00299072265625 -263.0029907226562 L 326.99798583984375 -263.0029907226562 L 326.99798583984375 -256.9979858398437 L 333.00299072265625 -256.9979858398437 L 337 -256.9979858398437 L 337 -243.00300598144526 L 333.00299072265625 -243.00300598144526 L 326.99798583984375 -243.00300598144526 L 326.99798583984375 -236.99800109863276 L 333.00299072265625 -236.99800109863276 L 337 -236.99800109863276 L 337 -223.00300598144526 L 333.00299072265625 -223.00300598144526 L 326.99798583984375 -223.00300598144526 L 326.99798583984375 -219.99999999999994 L 326.99798583984375 -216.99800109863276 L 337 -216.99800109863276 L 337 -216.00300598144526 L 337 -210.00300598144526 L 337 -203.99800109863276 L 337 -199.99999999999994 L 320.00299072265625 -199.99999999999994 L 320.00299072265625 -203.99800109863276 L 320.00299072265625 -210.00300598144526 L 317 -210.00300598144526 L 313.99798583984375 -210.00300598144526 L 313.99798583984375 -203.99800109863276 L 313.99798583984375 -199.99999999999994 L 300.00299072265625 -199.99999999999994 L 300.00299072265625 -203.99800109863276 L 300.00299072265625 -210.00300598144526 L 297 -210.00300598144526 L 293.99798583984375 -210.00300598144526 L 293.99798583984375 -203.99800109863276 L 293.99798583984375 -199.99999999999994 L 280.00299072265625 -199.99999999999994 L 280.00299072265625 -203.99800109863276 L 280.00299072265625 -210.00300598144526 L 277 -210.00300598144526 L 273.99798583984375 -210.00300598144526 L 273.99798583984375 -203.99800109863276 L 273.99798583984375 -199.99999999999994 L 260.00299072265625 -199.99999999999994 L 260.00299072265625 -203.99800109863276 L 260.00299072265625 -210.00300598144526 L 257 -210.00300598144526 L 253.9980010986328 -210.00300598144526 L 253.9980010986328 -203.99800109863276 L 253.9980010986328 -199.99999999999994 L 240.0030059814453 -199.99999999999994 L 240.0030059814453 -203.99800109863276 L 240.0030059814453 -210.00300598144526 L 237 -210.00300598144526 L 233.9980010986328 -210.00300598144526 L 233.9980010986328 -203.99800109863276 L 233.9980010986328 -199.99999999999994 L 220.0030059814453 -199.99999999999994 L 220.0030059814453 -203.99800109863276 L 220.0030059814453 -210.00300598144526 L 217 -210.00300598144526 L 213.9980010986328 -210.00300598144526 L 213.9980010986328 -203.99800109863276 L 213.9980010986328 -199.99999999999994 L 200.0030059814453 -199.99999999999994 L 200.0030059814453 -203.99800109863276 L 200.0030059814453 -210.00300598144526 L 197 -210.00300598144526 L 193.9980010986328 -210.00300598144526 L 193.9980010986328 -203.99800109863276 L 193.9980010986328 -199.99999999999994 L 180.0030059814453 -199.99999999999994 L 180.0030059814453 -203.99800109863276 L 180.0030059814453 -210.00300598144526 L 177 -210.00300598144526 L 173.9980010986328 -210.00300598144526 L 173.9980010986328 -203.99800109863276 L 173.9980010986328 -199.99999999999994 L 160.0030059814453 -199.99999999999994 L 160.0030059814453 -203.99800109863276 L 160.0030059814453 -210.00300598144526 L 157 -210.00300598144526 L 153.9980010986328 -210.00300598144526 L 153.9980010986328 -203.99800109863276 L 153.9980010986328 -199.99999999999994 L 140.0030059814453 -199.99999999999994 L 140.0030059814453 -203.99800109863276 L 140.0030059814453 -210.00300598144526 L 137 -210.00300598144526 L 133.9980010986328 -210.00300598144526 L 133.9980010986328 -203.99800109863276 L 133.9980010986328 -199.99999999999994 L 120.00299835205078 -199.99999999999994 L 120.00299835205078 -203.99800109863276 L 120.00299835205078 -210.00300598144526 L 117 -210.00300598144526 L 113.99800109863281 -210.00300598144526 L 113.99800109863281 -203.99800109863276 L 113.99800109863281 -199.99999999999994 L 100.00299835205078 -199.99999999999994 L 100.00299835205078 -203.99800109863276 L 100.00299835205078 -210.00300598144526 L 97 -210.00300598144526 L 93.99800109863281 -210.00300598144526 L 93.99800109863281 -203.99800109863276 L 93.99800109863281 -199.99999999999994 L 80.00299835205078 -199.99999999999994 L 80.00299835205078 -203.99800109863276 L 80.00299835205078 -210.00300598144526 L 77 -210.00300598144526 L 73.99800109863281 -210.00300598144526 L 73.99800109863281 -199.99999999999994 L 73.00299835205078 -199.99999999999994 L 67.00299835205078 -199.99999999999994 L 60.99800109863281 -199.99999999999994 L 57 -199.99999999999994 L 57 -216.99800109863276 L 60.99800109863281 -216.99800109863276 L 67.00299835205078 -216.99800109863276 L 67.00299835205078 -223.00300598144526 L 60.99800109863281 -223.00300598144526 L 57 -223.00300598144526 L 57 -236.99800109863276 L 60.99800109863281 -236.99800109863276 L 67.00299835205078 -236.99800109863276 L 67.00299835205078 -243.00300598144526 L 60.99800109863281 -243.00300598144526 L 57 -243.00300598144526 L 57 -256.9979858398437 L 60.99800109863281 -256.9979858398437 L 67.00299835205078 -256.9979858398437 L 67.00299835205078 -263.0029907226562 L 60.99800109863281 -263.0029907226562 L 57 -263.0029907226562 L 57 -276.9979858398437 L 60.99800109863281 -276.9979858398437 L 67.00299835205078 -276.9979858398437 L 67.00299835205078 -283.0029907226562 L 60.99800109863281 -283.0029907226562 L 57 -283.0029907226562 L 57 -296.9979858398437 L 60.99800109863281 -296.9979858398437 L 67.00299835205078 -296.9979858398437 L 67.00299835205078 -303.0029907226562 L 60.99800109863281 -303.0029907226562 L 57 -303.0029907226562 L 57 -316.9979858398437 L 60.99800109863281 -316.9979858398437 L 67.00299835205078 -316.9979858398437 L 67.00299835205078 -323.0029907226562 L 60.99800109863281 -323.0029907226562 L 57 -323.0029907226562 L 57 -336.9979858398437 L 60.99800109863281 -336.9979858398437 L 67.00299835205078 -336.9979858398437 L 67.00299835205078 -343.0029907226562 L 60.99800109863281 -343.0029907226562 L 57 -343.0029907226562 L 57 -356.9979858398437 L 60.99800109863281 -356.9979858398437 L 67.00299835205078 -356.9979858398437 L 67.00299835205078 -363.0029907226562 L 60.99800109863281 -363.0029907226562 L 57 -363.0029907226562 L 57 -376.9979858398437 L 60.99800109863281 -376.9979858398437 L 67.00299835205078 -376.9979858398437 L 67.00299835205078 -383.0029907226562 L 60.99800109863281 -383.0029907226562 L 57 -383.0029907226562 L 57 -396.99798583984364 L 60.99800109863281 -396.99798583984364 L 67.00299835205078 -396.99798583984364 L 67.00299835205078 -403.00299072265614 L 60.99800109863281 -403.00299072265614 L 57 -403.00299072265614 L 57 -416.99798583984364 L 60.99800109863281 -416.99798583984364 L 67.00299835205078 -416.99798583984364 L 67.00299835205078 -423.00299072265614 L 60.99800109863281 -423.00299072265614 L 57 -423.00299072265614 L 57 -436.99798583984364 L 60.99800109863281 -436.99798583984364 L 67.00299835205078 -436.99798583984364 L 67.00299835205078 -443.00299072265614 L 60.99800109863281 -443.00299072265614 L 57 -443.00299072265614 L 57 -456.99798583984364 L 60.99800109863281 -456.99798583984364 L 66.00299835205078 -456.99798583984364 L 66.00299835205078 -459.9999999999999 L 66.00299835205078 -463.00299072265614 L 57 -463.00299072265614 L 57 -463.99798583984364 L 57 -469.99798583984364 L 57 -476.00299072265614 L 57 -479.9999999999999 L 73.99800109863281 -479.9999999999999 L 73.99800109863281 -476.00299072265614 L 73.99800109863281 -469.99798583984364 L 77 -469.99798583984364 L 80.00299835205078 -469.99798583984364 L 80.00299835205078 -476.00299072265614 L 80.00299835205078 -479.9999999999999 L 93.99800109863281 -479.9999999999999 L 93.99800109863281 -476.00299072265614 L 93.99800109863281 -469.99798583984364 L 97 -469.99798583984364 L 100.00299835205078 -469.99798583984364 L 100.00299835205078 -476.00299072265614 L 100.00299835205078 -479.9999999999999 L 113.99800109863281 -479.9999999999999 L 113.99800109863281 -476.00299072265614 L 113.99800109863281 -469.99798583984364 L 117 -469.99798583984364 L 120.00299835205078 -469.99798583984364 L 120.00299835205078 -476.00299072265614 L 120.00299835205078 -479.9999999999999 L 133.9980010986328 -479.9999999999999 L 133.9980010986328 -476.00299072265614 L 133.9980010986328 -469.99798583984364 L 137 -469.99798583984364 L 140.0030059814453 -469.99798583984364 L 140.0030059814453 -476.00299072265614 L 140.0030059814453 -479.9999999999999 L 153.9980010986328 -479.9999999999999 L 153.9980010986328 -476.00299072265614 L 153.9980010986328 -469.99798583984364 L 157 -469.99798583984364 L 160.0030059814453 -469.99798583984364 L 160.0030059814453 -476.00299072265614 L 160.0030059814453 -479.9999999999999 L 173.9980010986328 -479.9999999999999 L 173.9980010986328 -476.00299072265614 L 173.9980010986328 -469.99798583984364 L 177 -469.99798583984364 L 180.0030059814453 -469.99798583984364 L 180.0030059814453 -476.00299072265614 L 180.0030059814453 -479.9999999999999 L 193.9980010986328 -479.9999999999999 L 193.9980010986328 -476.00299072265614 L 193.9980010986328 -469.99798583984364 L 197 -469.99798583984364 L 200.0030059814453 -469.99798583984364 L 200.0030059814453 -476.00299072265614 L 200.0030059814453 -479.9999999999999 L 213.9980010986328 -479.9999999999999 L 213.9980010986328 -476.00299072265614 L 213.9980010986328 -469.99798583984364 L 217 -469.99798583984364 L 220.0030059814453 -469.99798583984364 L 220.0030059814453 -476.00299072265614 L 220.0030059814453 -479.9999999999999 L 233.9980010986328 -479.9999999999999 L 233.9980010986328 -476.00299072265614 L 233.9980010986328 -469.99798583984364 L 237 -469.99798583984364 L 240.0030059814453 -469.99798583984364 L 240.0030059814453 -476.00299072265614 L 240.0030059814453 -479.9999999999999 L 253.9980010986328 -479.9999999999999 L 253.9980010986328 -476.00299072265614 L 253.9980010986328 -469.99798583984364 L 257 -469.99798583984364 L 260.00299072265625 -469.99798583984364 L 260.00299072265625 -476.00299072265614 L 260.00299072265625 -479.9999999999999 L 273.99798583984375 -479.9999999999999 L 273.99798583984375 -476.00299072265614 L 273.99798583984375 -469.99798583984364 L 277 -469.99798583984364 L 280.00299072265625 -469.99798583984364 L 280.00299072265625 -476.00299072265614 L 280.00299072265625 -479.9999999999999 L 293.99798583984375 -479.9999999999999 L 293.99798583984375 -476.00299072265614 L 293.99798583984375 -469.99798583984364 L 297 -469.99798583984364 L 300.00299072265625 -469.99798583984364 L 300.00299072265625 -476.00299072265614 L 300.00299072265625 -479.9999999999999 L 313.99798583984375 -479.9999999999999 L 313.99798583984375 -476.00299072265614 L 313.99798583984375 -469.99798583984364 L 317 -469.99798583984364 L 320.00299072265625 -469.99798583984364 L 320.00299072265625 -479.9999999999999 L 320.99798583984375 -479.9999999999999 L 326.99798583984375 -479.9999999999999 L 333.00299072265625 -479.9999999999999 L 337 -479.9999999999999 L 337 -463.00299072265614 M 60.99800109863281 -254.00300598144526 L 60.99800109863281 -245.99800109863276 L 67.00299835205078 -245.99800109863276 L 73.00299835205078 -245.99800109863276 L 73.00299835205078 -254.00300598144526 L 67.00299835205078 -254.00300598144526 L 60.99800109863281 -254.00300598144526 M 60.99800109863281 -274.0029907226562 L 60.99800109863281 -265.9979858398437 L 67.00299835205078 -265.9979858398437 L 73.00299835205078 -265.9979858398437 L 73.00299835205078 -274.0029907226562 L 67.00299835205078 -274.0029907226562 L 60.99800109863281 -274.0029907226562 M 60.99800109863281 -294.0029907226562 L 60.99800109863281 -285.9979858398437 L 67.00299835205078 -285.9979858398437 L 73.00299835205078 -285.9979858398437 L 73.00299835205078 -294.0029907226562 L 67.00299835205078 -294.0029907226562 L 60.99800109863281 -294.0029907226562 M 60.99800109863281 -314.0029907226562 L 60.99800109863281 -305.9979858398437 L 67.00299835205078 -305.9979858398437 L 73.00299835205078 -305.9979858398437 L 73.00299835205078 -314.0029907226562 L 67.00299835205078 -314.0029907226562 L 60.99800109863281 -314.0029907226562 M 60.99800109863281 -334.0029907226562 L 60.99800109863281 -325.9979858398437 L 67.00299835205078 -325.9979858398437 L 73.00299835205078 -325.9979858398437 L 73.00299835205078 -334.0029907226562 L 67.00299835205078 -334.0029907226562 L 60.99800109863281 -334.0029907226562 M 60.99800109863281 -354.0029907226562 L 60.99800109863281 -345.9979858398437 L 67.00299835205078 -345.9979858398437 L 73.00299835205078 -345.9979858398437 L 73.00299835205078 -354.0029907226562 L 67.00299835205078 -354.0029907226562 L 60.99800109863281 -354.0029907226562 M 60.99800109863281 -374.0029907226562 L 60.99800109863281 -365.9979858398437 L 67.00299835205078 -365.9979858398437 L 73.00299835205078 -365.9979858398437 L 73.00299835205078 -374.0029907226562 L 67.00299835205078 -374.0029907226562 L 60.99800109863281 -374.0029907226562 M 60.99800109863281 -394.00299072265614 L 60.99800109863281 -385.99798583984364 L 67.00299835205078 -385.99798583984364 L 73.00299835205078 -385.99798583984364 L 73.00299835205078 -394.00299072265614 L 67.00299835205078 -394.00299072265614 L 60.99800109863281 -394.00299072265614 M 60.99800109863281 -414.00299072265614 L 60.99800109863281 -405.99798583984364 L 67.00299835205078 -405.99798583984364 L 73.00299835205078 -405.99798583984364 L 73.00299835205078 -414.00299072265614 L 67.00299835205078 -414.00299072265614 L 60.99800109863281 -414.00299072265614 M 60.99800109863281 -434.00299072265614 L 60.99800109863281 -425.99798583984364 L 67.00299835205078 -425.99798583984364 L 73.00299835205078 -425.99798583984364 L 73.00299835205078 -434.00299072265614 L 67.00299835205078 -434.00299072265614 L 60.99800109863281 -434.00299072265614 M 326.99798583984375 -454.00299072265614 L 320.99798583984375 -454.00299072265614 L 320.99798583984375 -445.99798583984364 L 326.99798583984375 -445.99798583984364 L 333.00299072265625 -445.99798583984364 L 333.00299072265625 -454.00299072265614 L 326.99798583984375 -454.00299072265614 M 326.99798583984375 -434.00299072265614 L 320.99798583984375 -434.00299072265614 L 320.99798583984375 -425.99798583984364 L 326.99798583984375 -425.99798583984364 L 333.00299072265625 -425.99798583984364 L 333.00299072265625 -434.00299072265614 L 326.99798583984375 -434.00299072265614 M 326.99798583984375 -414.00299072265614 L 320.99798583984375 -414.00299072265614 L 320.99798583984375 -405.99798583984364 L 326.99798583984375 -405.99798583984364 L 333.00299072265625 -405.99798583984364 L 333.00299072265625 -414.00299072265614 L 326.99798583984375 -414.00299072265614 M 326.99798583984375 -394.00299072265614 L 320.99798583984375 -394.00299072265614 L 320.99798583984375 -385.99798583984364 L 326.99798583984375 -385.99798583984364 L 333.00299072265625 -385.99798583984364 L 333.00299072265625 -394.00299072265614 L 326.99798583984375 -394.00299072265614 M 326.99798583984375 -374.0029907226562 L 320.99798583984375 -374.0029907226562 L 320.99798583984375 -365.9979858398437 L 326.99798583984375 -365.9979858398437 L 333.00299072265625 -365.9979858398437 L 333.00299072265625 -374.0029907226562 L 326.99798583984375 -374.0029907226562 M 326.99798583984375 -354.0029907226562 L 320.99798583984375 -354.0029907226562 L 320.99798583984375 -345.9979858398437 L 326.99798583984375 -345.9979858398437 L 333.00299072265625 -345.9979858398437 L 333.00299072265625 -354.0029907226562 L 326.99798583984375 -354.0029907226562 M 326.99798583984375 -334.0029907226562 L 320.99798583984375 -334.0029907226562 L 320.99798583984375 -325.9979858398437 L 326.99798583984375 -325.9979858398437 L 333.00299072265625 -325.9979858398437 L 333.00299072265625 -334.0029907226562 L 326.99798583984375 -334.0029907226562 M 326.99798583984375 -314.0029907226562 L 320.99798583984375 -314.0029907226562 L 320.99798583984375 -305.9979858398437 L 326.99798583984375 -305.9979858398437 L 333.00299072265625 -305.9979858398437 L 333.00299072265625 -314.0029907226562 L 326.99798583984375 -314.0029907226562 M 326.99798583984375 -294.0029907226562 L 320.99798583984375 -294.0029907226562 L 320.99798583984375 -285.9979858398437 L 326.99798583984375 -285.9979858398437 L 333.00299072265625 -285.9979858398437 L 333.00299072265625 -294.0029907226562 L 326.99798583984375 -294.0029907226562 M 326.99798583984375 -274.0029907226562 L 320.99798583984375 -274.0029907226562 L 320.99798583984375 -265.9979858398437 L 326.99798583984375 -265.9979858398437 L 333.00299072265625 -265.9979858398437 L 333.00299072265625 -274.0029907226562 L 326.99798583984375 -274.0029907226562 M 326.99798583984375 -254.00300598144526 L 320.99798583984375 -254.00300598144526 L 320.99798583984375 -245.99800109863276 L 326.99798583984375 -245.99800109863276 L 333.00299072265625 -245.99800109863276 L 333.00299072265625 -254.00300598144526 L 326.99798583984375 -254.00300598144526 M 326.99798583984375 -234.00300598144526 L 320.99798583984375 -234.00300598144526 L 320.99798583984375 -225.99800109863276 L 326.99798583984375 -225.99800109863276 L 333.00299072265625 -225.99800109863276 L 333.00299072265625 -234.00300598144526 L 326.99798583984375 -234.00300598144526 M 311.00299072265625 -203.99800109863276 L 311.00299072265625 -210.00300598144526 L 311.00299072265625 -216.00300598144526 L 302.99798583984375 -216.00300598144526 L 302.99798583984375 -210.00300598144526 L 302.99798583984375 -203.99800109863276 L 311.00299072265625 -203.99800109863276 M 302.99798583984375 -469.99798583984364 L 302.99798583984375 -463.99798583984364 L 311.00299072265625 -463.99798583984364 L 311.00299072265625 -469.99798583984364 L 311.00299072265625 -476.00299072265614 L 302.99798583984375 -476.00299072265614 L 302.99798583984375 -469.99798583984364 M 291.00299072265625 -203.99800109863276 L 291.00299072265625 -210.00300598144526 L 291.00299072265625 -216.00300598144526 L 282.99798583984375 -216.00300598144526 L 282.99798583984375 -210.00300598144526 L 282.99798583984375 -203.99800109863276 L 291.00299072265625 -203.99800109863276 M 282.99798583984375 -469.99798583984364 L 282.99798583984375 -463.99798583984364 L 291.00299072265625 -463.99798583984364 L 291.00299072265625 -469.99798583984364 L 291.00299072265625 -476.00299072265614 L 282.99798583984375 -476.00299072265614 L 282.99798583984375 -469.99798583984364 M 231.0030059814453 -203.99800109863276 L 231.0030059814453 -210.00300598144526 L 231.0030059814453 -216.00300598144526 L 222.9980010986328 -216.00300598144526 L 222.9980010986328 -210.00300598144526 L 222.9980010986328 -203.99800109863276 L 231.0030059814453 -203.99800109863276 M 222.9980010986328 -469.99798583984364 L 222.9980010986328 -463.99798583984364 L 231.0030059814453 -463.99798583984364 L 231.0030059814453 -469.99798583984364 L 231.0030059814453 -476.00299072265614 L 222.9980010986328 -476.00299072265614 L 222.9980010986328 -469.99798583984364 M 211.0030059814453 -203.99800109863276 L 211.0030059814453 -210.00300598144526 L 211.0030059814453 -216.00300598144526 L 202.9980010986328 -216.00300598144526 L 202.9980010986328 -210.00300598144526 L 202.9980010986328 -203.99800109863276 L 211.0030059814453 -203.99800109863276 M 202.9980010986328 -469.99798583984364 L 202.9980010986328 -463.99798583984364 L 211.0030059814453 -463.99798583984364 L 211.0030059814453 -469.99798583984364 L 211.0030059814453 -476.00299072265614 L 202.9980010986328 -476.00299072265614 L 202.9980010986328 -469.99798583984364 M 67.00299835205078 -225.99800109863276 L 73.00299835205078 -225.99800109863276 L 73.00299835205078 -234.00300598144526 L 67.00299835205078 -234.00300598144526 L 60.99800109863281 -234.00300598144526 L 60.99800109863281 -225.99800109863276 L 67.00299835205078 -225.99800109863276 M 67.00299835205078 -445.99798583984364 L 73.00299835205078 -445.99798583984364 L 73.00299835205078 -454.00299072265614 L 66.00299835205078 -454.00299072265614 L 60.99800109863281 -454.00299072265614 L 60.99800109863281 -445.99798583984364 L 67.00299835205078 -445.99798583984364 M 91.00299835205078 -203.99800109863276 L 91.00299835205078 -210.00300598144526 L 91.00299835205078 -216.00300598144526 L 82.99800109863281 -216.00300598144526 L 82.99800109863281 -210.00300598144526 L 82.99800109863281 -203.99800109863276 L 91.00299835205078 -203.99800109863276 M 82.99800109863281 -469.99798583984364 L 82.99800109863281 -463.99798583984364 L 91.00299835205078 -463.99798583984364 L 91.00299835205078 -469.99798583984364 L 91.00299835205078 -476.00299072265614 L 82.99800109863281 -476.00299072265614 L 82.99800109863281 -469.99798583984364 M 111.00299835205078 -203.99800109863276 L 111.00299835205078 -210.00300598144526 L 111.00299835205078 -216.00300598144526 L 102.99800109863281 -216.00300598144526 L 102.99800109863281 -210.00300598144526 L 102.99800109863281 -203.99800109863276 L 111.00299835205078 -203.99800109863276 M 102.99800109863281 -469.99798583984364 L 102.99800109863281 -463.99798583984364 L 111.00299835205078 -463.99798583984364 L 111.00299835205078 -469.99798583984364 L 111.00299835205078 -476.00299072265614 L 102.99800109863281 -476.00299072265614 L 102.99800109863281 -469.99798583984364 M 131.0030059814453 -203.99800109863276 L 131.0030059814453 -210.00300598144526 L 131.0030059814453 -216.00300598144526 L 122.99800109863281 -216.00300598144526 L 122.99800109863281 -210.00300598144526 L 122.99800109863281 -203.99800109863276 L 131.0030059814453 -203.99800109863276 M 122.99800109863281 -469.99798583984364 L 122.99800109863281 -463.99798583984364 L 131.0030059814453 -463.99798583984364 L 131.0030059814453 -469.99798583984364 L 131.0030059814453 -476.00299072265614 L 122.99800109863281 -476.00299072265614 L 122.99800109863281 -469.99798583984364 M 151.0030059814453 -203.99800109863276 L 151.0030059814453 -210.00300598144526 L 151.0030059814453 -216.00300598144526 L 142.9980010986328 -216.00300598144526 L 142.9980010986328 -210.00300598144526 L 142.9980010986328 -203.99800109863276 L 151.0030059814453 -203.99800109863276 M 142.9980010986328 -469.99798583984364 L 142.9980010986328 -463.99798583984364 L 151.0030059814453 -463.99798583984364 L 151.0030059814453 -469.99798583984364 L 151.0030059814453 -476.00299072265614 L 142.9980010986328 -476.00299072265614 L 142.9980010986328 -469.99798583984364 M 171.0030059814453 -203.99800109863276 L 171.0030059814453 -210.00300598144526 L 171.0030059814453 -216.00300598144526 L 162.9980010986328 -216.00300598144526 L 162.9980010986328 -210.00300598144526 L 162.9980010986328 -203.99800109863276 L 171.0030059814453 -203.99800109863276 M 162.9980010986328 -469.99798583984364 L 162.9980010986328 -463.99798583984364 L 171.0030059814453 -463.99798583984364 L 171.0030059814453 -469.99798583984364 L 171.0030059814453 -476.00299072265614 L 162.9980010986328 -476.00299072265614 L 162.9980010986328 -469.99798583984364 M 191.0030059814453 -203.99800109863276 L 191.0030059814453 -210.00300598144526 L 191.0030059814453 -216.00300598144526 L 182.9980010986328 -216.00300598144526 L 182.9980010986328 -210.00300598144526 L 182.9980010986328 -203.99800109863276 L 191.0030059814453 -203.99800109863276 M 182.9980010986328 -469.99798583984364 L 182.9980010986328 -463.99798583984364 L 191.0030059814453 -463.99798583984364 L 191.0030059814453 -469.99798583984364 L 191.0030059814453 -476.00299072265614 L 182.9980010986328 -476.00299072265614 L 182.9980010986328 -469.99798583984364 M 251.0030059814453 -203.99800109863276 L 251.0030059814453 -210.00300598144526 L 251.0030059814453 -216.00300598144526 L 242.9980010986328 -216.00300598144526 L 242.9980010986328 -210.00300598144526 L 242.9980010986328 -203.99800109863276 L 251.0030059814453 -203.99800109863276 M 242.9980010986328 -469.99798583984364 L 242.9980010986328 -463.99798583984364 L 251.0030059814453 -463.99798583984364 L 251.0030059814453 -469.99798583984364 L 251.0030059814453 -476.00299072265614 L 242.9980010986328 -476.00299072265614 L 242.9980010986328 -469.99798583984364 M 271.00299072265625 -203.99800109863276 L 271.00299072265625 -210.00300598144526 L 271.00299072265625 -216.00300598144526 L 262.99798583984375 -216.00300598144526 L 262.99798583984375 -210.00300598144526 L 262.99798583984375 -203.99800109863276 L 271.00299072265625 -203.99800109863276 M 262.99798583984375 -469.99798583984364 L 262.99798583984375 -463.99798583984364 L 271.00299072265625 -463.99798583984364 L 271.00299072265625 -469.99798583984364 L 271.00299072265625 -476.00299072265614 L 262.99798583984375 -476.00299072265614 L 262.99798583984375 -469.99798583984364 z" fill="none" stroke="rgb(255,0,0)" stroke-width="0.001mm" />
</svg>