<?xml version="1.0" standalone="no"?>
<!DOCTYPE svg PUBLIC "-//W3C//DTD SVG 1.1//EN"
  "http://www.w3.org/Graphics/SVG/1.1/DTD/svg11.dtd">
<svg width="22mm" height="62.001007080078125mm" viewBox="343 -479.9999999999999 22 62.001007080078125" xmlns="http://www.w3.org/2000/svg" version="1.1">
	<title>svgOutput</title>
	<desc>made with tinkercad</desc>
<path d="M 358.99798583984375 -478.9999999999999 L 364 -473.99798583984364 L 364 -471.99813842773426 L 364 -470.428009033203 L 364 -455.5899963378905 L 364 -433.147003173828 L 364 -431.6447753906249 L 354.00299072265625 -421.64739990234364 L 351.3547058105469 -418.99899291992176 L 351.00244140625 -418.99899291992176 L 349.85595703125 -418.99899291992176 L 345.0039978027344 -418.99899291992176 L 344 -420.00299072265614 L 344 -424.8521728515624 L 344 -426.0034179687499 L 344 -438.2609863281249 L 354.00299072265625 -438.2609863281249 L 354.00299072265625 -443.14401245117176 L 354.00299072265625 -444.2659912109374 L 352.6759948730469 -444.2659912109374 L 344 -444.2659912109374 L 344 -445.99798583984364 L 354.00299072265625 -445.99798583984364 L 354.00299072265625 -452.00299072265614 L 344 -452.00299072265614 L 344 -463.88204956054676 L 344 -470.428009033203 L 344 -470.99798583984364 L 348.9972839355469 -470.99798583984364 L 354.00299072265625 -470.99798583984364 L 354.00299072265625 -476.004425048828 L 354.00299072265625 -477.00299072265614 L 344 -477.00299072265614 L 344 -478.9999999999999 L 354.00299072265625 -478.9999999999999 L 356.9981384277344 -478.9999999999999 L 358.99798583984375 -478.9999999999999 M 354.00299072265625 -457.87542724609364 L 360.1440124511719 -451.7340087890624 L 362.2659912109375 -453.855987548828 L 354.00299072265625 -462.11898803710926 L 348.1189880371094 -468.00299072265614 L 345.99798583984375 -465.8810119628905 L 354.00299072265625 -457.87542724609364 M 347.8559875488281 -420.99798583984364 L 354.00299072265625 -427.144561767578 L 362.00299072265625 -435.14401245117176 L 359.8810119628906 -437.2659912109374 L 354.00299072265625 -431.38800048828114 L 345.7340087890625 -423.11898803710926 L 347.8559875488281 -420.99798583984364 z" fill="none" stroke="rgb(255,0,0)" stroke-width="0.001mm" />
</svg>