<?xml version="1.0" standalone="no"?>
<!DOCTYPE svg PUBLIC "-//W3C//DTD SVG 1.1//EN"
  "http://www.w3.org/Graphics/SVG/1.1/DTD/svg11.dtd">
<svg width="22mm" height="54.49798583984369mm" viewBox="250.5 350.49999999999994 22 54.49798583984369" xmlns="http://www.w3.org/2000/svg" version="1.1">
	<title>svgOutput</title>
	<desc>made with tinkercad</desc>
<path d="M 251.5 351.49999999999994 L 261.50299072265625 351.49999999999994 L 271.5 351.49999999999994 L 271.5 358.99999999999994 L 271.5 376.7123413085937 L 257.2850036621094 362.4979858398437 L 255.16299438476562 364.6189880371093 L 270.5419921875 379.9979858398437 L 271.5 380.9559936523437 L 271.5 383.0029907226562 L 271.5 391.61459350585926 L 271.5 403.99798583984364 L 253.12399291992188 403.99798583984364 L 268.50299072265625 388.61898803710926 L 266.3810119628906 386.49798583984364 L 251.5 401.3782958984374 L 251.5 383.0029907226562 L 261.49798583984375 383.0029907226562 L 261.50299072265625 383.0029907226562 L 261.50299072265625 381.6222839355468 L 261.50299072265625 379.9979858398437 L 261.49798583984375 379.9979858398437 L 259.8779296875 379.9979858398437 L 251.5 379.9979858398437 L 251.5 371.62402343749994 L 251.5 368.28027343749994 L 251.5 358.99999999999994 L 251.5 358.0029907226562 L 261.50299072265625 358.0029907226562 L 261.50299072265625 354.9979858398437 L 251.5 354.9979858398437 L 251.5 351.49999999999994 z" fill="none" stroke="rgb(255,0,0)" stroke-width="0.001mm" />
</svg>