<?xml version="1.0" standalone="no"?>
<!DOCTYPE svg PUBLIC "-//W3C//DTD SVG 1.1//EN"
  "http://www.w3.org/Graphics/SVG/1.1/DTD/svg11.dtd">
<svg width="22mm" height="54.49798583984375mm" viewBox="-1 210.99999999999994 22 54.49798583984375" xmlns="http://www.w3.org/2000/svg" version="1.1">
	<title>svgOutput</title>
	<desc>made with tinkercad</desc>
<path d="M 0 211.99999999999994 L 10.003000259399414 211.99999999999994 L 20 211.99999999999994 L 20 219.49999999999994 L 20 237.21232604980463 L 10.003000259399414 227.21580505371088 L 5.784999847412109 222.99800109863276 L 3.6630001068115234 225.11900329589838 L 10.003000259399414 231.458999633789 L 19.04199981689453 240.49800109863276 L 20 241.4559936523437 L 20 243.50300598144526 L 20 251.21800231933588 L 20 252.35563659667963 L 7.857161521911621 264.4979858398437 L 6.71999979019165 264.4979858398437 L 1.6239999532699585 264.4979858398437 L 17.003000259399414 249.11900329589838 L 14.880999565124512 246.99800109863276 L 10.003000259399414 251.87576293945307 L 0 261.87829589843744 L 0 245.00300598144526 L 10.003000259399414 245.00300598144526 L 10.003000259399414 243.50300598144526 L 10.003000259399414 240.49800109863276 L 10.003000259399414 238.99800109863276 L 0 238.99800109863276 L 0 228.78027343749994 L 0 220.00300598144526 L 8.781412124633789 220.00300598144526 L 10.003000259399414 220.00300598144526 L 10.003000259399414 219.49999999999994 L 10.003000259399414 213.99800109863276 L 0 213.99800109863276 L 0 211.99999999999994 z" fill="none" stroke="rgb(255,0,0)" stroke-width="0.001mm" />
</svg>